<?xml version="1.0" encoding="utf-8"?>
<!-- Generator: Adobe Illustrator 18.0.0, SVG Export Plug-In . SVG Version: 6.00 Build 0)  -->
<!DOCTYPE svg PUBLIC "-//W3C//DTD SVG 1.1//EN" "http://www.w3.org/Graphics/SVG/1.1/DTD/svg11.dtd" [
	<!ENTITY ns_extend "http://ns.adobe.com/Extensibility/1.0/">
	<!ENTITY ns_ai "http://ns.adobe.com/AdobeIllustrator/10.0/">
	<!ENTITY ns_graphs "http://ns.adobe.com/Graphs/1.0/">
	<!ENTITY ns_vars "http://ns.adobe.com/Variables/1.0/">
	<!ENTITY ns_imrep "http://ns.adobe.com/ImageReplacement/1.0/">
	<!ENTITY ns_sfw "http://ns.adobe.com/SaveForWeb/1.0/">
	<!ENTITY ns_custom "http://ns.adobe.com/GenericCustomNamespace/1.0/">
	<!ENTITY ns_adobe_xpath "http://ns.adobe.com/XPath/1.0/">
]>
<svg version="1.1" id="icons" xmlns:x="&ns_extend;" xmlns:i="&ns_ai;" xmlns:graph="&ns_graphs;"
	 xmlns="http://www.w3.org/2000/svg" xmlns:xlink="http://www.w3.org/1999/xlink" x="0px" y="0px" viewBox="0 0 24 24"
	 enable-background="new 0 0 24 24" xml:space="preserve">
<metadata>
	<sfw  xmlns="&ns_sfw;">
		<slices></slices>
		<sliceSourceBounds  height="200" width="332" x="21" y="-287" bottomLeftOrigin="true"></sliceSourceBounds>
		<optimizationSettings>
			<targetSettings  fileFormat="PNG24Format" targetSettingsID="0">
				<PNG24Format  transparency="true" filtered="false" noMatteColor="false" matteColor="#FFFFFF" interlaced="false">
					</PNG24Format>
			</targetSettings>
		</optimizationSettings>
	</sfw>
</metadata>
<path fill="#5B5B5B" d="M23.585,10.007l-2.95-0.513c-0.184-0.637-0.438-1.25-0.758-1.83l1.723-2.449
	c0.14-0.199,0.117-0.469-0.055-0.641l-2.122-2.121c-0.171-0.171-0.442-0.196-0.641-0.055l-2.449,1.723
	c-0.58-0.32-1.192-0.574-1.829-0.758l-0.513-2.95C13.951,0.175,13.743,0,13.5,0h-3c-0.243,0-0.451,0.175-0.493,0.415l-0.513,2.95
	c-0.637,0.184-1.25,0.438-1.829,0.758L5.217,2.399C5.019,2.258,4.748,2.283,4.576,2.454L2.454,4.575
	C2.282,4.747,2.259,5.018,2.399,5.216l1.723,2.449c-0.32,0.58-0.574,1.193-0.758,1.83l-2.95,0.513C0.175,10.049,0,10.257,0,10.5v3
	c0,0.243,0.175,0.451,0.415,0.493l2.95,0.513c0.184,0.637,0.438,1.25,0.758,1.829l-1.723,2.449c-0.14,0.199-0.117,0.469,0.055,0.641
	l2.122,2.122c0.172,0.173,0.443,0.197,0.641,0.055l2.449-1.723c0.58,0.32,1.192,0.574,1.829,0.758l0.513,2.95
	C10.049,23.825,10.257,24,10.5,24h3c0.243,0,0.451-0.175,0.493-0.415l0.513-2.95c0.637-0.184,1.25-0.438,1.829-0.758l2.449,1.723
	c0.199,0.142,0.47,0.118,0.641-0.055l2.122-2.122c0.172-0.172,0.195-0.442,0.055-0.641l-1.723-2.449
	c0.32-0.58,0.574-1.192,0.758-1.829l2.95-0.513C23.825,13.951,24,13.743,24,13.5v-3C24,10.257,23.825,10.049,23.585,10.007z
	 M23,13.08l-2.849,0.495c-0.195,0.034-0.352,0.179-0.399,0.371c-0.191,0.761-0.492,1.487-0.895,2.159
	c-0.102,0.17-0.094,0.383,0.02,0.545l1.665,2.365l-1.527,1.527l-2.365-1.665c-0.162-0.114-0.375-0.123-0.545-0.02
	c-0.671,0.403-1.398,0.704-2.159,0.895c-0.192,0.048-0.337,0.205-0.371,0.399L13.08,23H10.92l-0.495-2.849
	c-0.034-0.195-0.179-0.352-0.371-0.399c-0.761-0.191-1.487-0.492-2.159-0.895c-0.17-0.103-0.383-0.093-0.545,0.02l-2.365,1.665
	l-1.527-1.527l1.665-2.365c0.114-0.162,0.122-0.375,0.02-0.545c-0.403-0.671-0.704-1.398-0.895-2.159
	c-0.048-0.192-0.205-0.337-0.399-0.371L1,13.08V10.92l2.849-0.495c0.195-0.034,0.352-0.179,0.399-0.371
	C4.439,9.293,4.74,8.567,5.143,7.896c0.102-0.17,0.094-0.383-0.02-0.545L3.458,4.985l1.527-1.526l2.365,1.665
	c0.161,0.113,0.375,0.122,0.545,0.02c0.671-0.403,1.398-0.704,2.159-0.895c0.192-0.048,0.337-0.205,0.371-0.399L10.92,1h2.159
	l0.495,2.849c0.034,0.195,0.179,0.352,0.371,0.399c0.761,0.191,1.487,0.492,2.159,0.895c0.17,0.103,0.384,0.093,0.545-0.02
	l2.365-1.665l1.527,1.526l-1.665,2.366c-0.114,0.162-0.122,0.375-0.02,0.545c0.403,0.671,0.704,1.398,0.895,2.159
	c0.048,0.192,0.205,0.337,0.399,0.371L23,10.92V13.08z"/>
<path fill="#5B5B5B" d="M12,6c-3.309,0-6,2.691-6,6s2.691,6,6,6s6-2.691,6-6S15.309,6,12,6z M12,17c-2.757,0-5-2.243-5-5
	s2.243-5,5-5s5,2.243,5,5S14.757,17,12,17z"/>
<path fill="#5B5B5B" d="M12,9c-1.654,0-3,1.346-3,3s1.346,3,3,3s3-1.346,3-3S13.654,9,12,9z M12,14c-1.103,0-2-0.897-2-2
	s0.897-2,2-2s2,0.897,2,2S13.103,14,12,14z"/>
</svg>
