<svg xmlns="http://www.w3.org/2000/svg" viewBox="0 0 138.91 34.76"><defs><style>.cls-1{fill:#f44336;}</style></defs><title>Ресурс 3</title><g id="Слой_2" data-name="Слой 2"><g id="Слой_1-2" data-name="Слой 1"><path class="cls-1" d="M11.76,17.25,4.31,24.6c-1.33,1.31-2.41,2-3.22,2S0,26.31,0,25.8q0-1.26,2.66-3.57a11.79,11.79,0,0,1,3.33-2l2.69-3-2,.07c-.89,0-1.33-.25-1.33-.76s.53-1.12,1.58-2.1A10.33,10.33,0,0,1,9.35,12.6a7.41,7.41,0,0,1,3.08-.66c.35,0,.52.09.52.27s-.45.37-1.36.46-1.19.25-1.19.46.18.36.56.31l.24,0,1.93-.07Q27.34,1,29.89,1a1.13,1.13,0,0,1,.84.44,1.41,1.41,0,0,1,.39,1,5.53,5.53,0,0,1-.88,2.24L25.8,12.46l2.06-.07a2.72,2.72,0,0,1,1,.21,22.24,22.24,0,0,0-2.62,4l-2.8.13L22,19.22a6.16,6.16,0,0,0-.77,1.64.57.57,0,0,0,.21.38.61.61,0,0,0,.46.22c.39,0,1.4-.64,3-1.9l.63.92q-4.66,4.44-7,4.44a1.77,1.77,0,0,1-1.33-.54A1.86,1.86,0,0,1,16.7,23a6.68,6.68,0,0,1,1-3.12L19.32,17Zm10.15-4.62,4.76-7.94A117,117,0,0,0,16.52,13Z"/><path class="cls-1" d="M36.75,21.52q-3.68,4-5.85,4c-1,0-1.72-.63-2.17-1.89a10.87,10.87,0,0,1-.63-3.71A13.42,13.42,0,0,1,29,15.29a21.37,21.37,0,0,1,2.29-4.49,32.74,32.74,0,0,1,3.12-4A43,43,0,0,1,38,3.29a18.84,18.84,0,0,1,2.39-2.06A5.9,5.9,0,0,1,42.67,0a.61.61,0,0,1,.61.44,2.82,2.82,0,0,1,.16.92,8.54,8.54,0,0,1-1.37,3.91,36.79,36.79,0,0,1-3.38,4.88c-1.34,1.66-2.72,3.23-4.13,4.73A47.73,47.73,0,0,1,31,18.31c0,.6-.06,1-.06,1.22,0,1.77.38,2.66,1.15,2.66s1.46-.65,2.48-2a3.37,3.37,0,0,1-.35-1.5,4.62,4.62,0,0,1,1.28-3.05,8.37,8.37,0,0,1,2.89-2.2,1.33,1.33,0,0,1,.53-.11c.48,0,.73.3.73.91a11.09,11.09,0,0,1-1.65,5,1.68,1.68,0,0,0,1,.35,2.14,2.14,0,0,0,.82-.18,4.31,4.31,0,0,0,.88-.49c.29-.21.52-.39.7-.54s.47-.39.89-.72v1.51a26.57,26.57,0,0,1-2.47,1.85,3.88,3.88,0,0,1-2.12.66A2.58,2.58,0,0,1,36.75,21.52ZM32.3,14.91c1.71-1.94,3-3.41,3.85-4.43A36.62,36.62,0,0,0,38.78,7a25.26,25.26,0,0,0,2.27-4.23,63.4,63.4,0,0,0-5.16,6A30.5,30.5,0,0,0,32.3,14.91Z"/><path class="cls-1" d="M42.35,20.61v-.45c0-.09,0-.44.07-1.05q.45-1.55,3.11-3.46a25.14,25.14,0,0,1,5.15-2.75,13.39,13.39,0,0,1,4.69-1.21,2.12,2.12,0,0,1,1.82.91,1.57,1.57,0,0,1,.35.73c0,.24-.41.53-1.23.88a1.4,1.4,0,0,1,1,1.29,2.27,2.27,0,0,1-.7,1.4c-1.61,1.9-2.41,3.19-2.41,3.89s.4,1,1.19,1a5.38,5.38,0,0,0,2.45-1.09c.7-.54,1.41-1.07,2.13-1.61,0,.61-.07,1-.07,1.05a2.48,2.48,0,0,0,0,.45c-.21.14-.7.53-1.47,1.16q-2.91,2.31-4,3a3.74,3.74,0,0,1-1.92.7A1.41,1.41,0,0,1,51.43,25,1.78,1.78,0,0,1,51,23.77a10.8,10.8,0,0,1,1.33-4.06c-3.13,2.47-5,3.91-5.57,4.32a2.7,2.7,0,0,1-1.4.61c-.77,0-1.55-.71-2.34-2.14A5.41,5.41,0,0,1,42.35,20.61Zm11.86-5.53c-.84.24-2.05.61-3.64,1.13a13.59,13.59,0,0,0-4.86,2.9,2.76,2.76,0,0,0-.7,2c0,.59.17.88.52.88q.78,0,3.54-2.1A33.25,33.25,0,0,0,54.21,15.08Z"/><path class="cls-1" d="M63.14,17.64a20.83,20.83,0,0,0,2.47-.24c1.15-.17,1.86-.25,2.11-.25A9.16,9.16,0,0,1,69,14.94,22,22,0,0,1,71,12.71c.09-.08.3-.25.61-.53a7.27,7.27,0,0,1,.88-.68,1.27,1.27,0,0,1,.68-.27.68.68,0,0,1,.17,0c.35.19.53.64.53,1.36a3.35,3.35,0,0,1-.14,1,5,5,0,0,1-1.1,1.56,13.53,13.53,0,0,0-1.14,1.35c-.58.88-1.09,1.69-1.51,2.41a3.86,3.86,0,0,0-.63,1.85.83.83,0,0,0,.07.35.8.8,0,0,0,.74.53,4.08,4.08,0,0,0,2.1-1.05l1.64-1.43,1.05-1c.24-.21.42-.38.56-.52v1.58c-.18.23-.36.44-.54.64l-.89,1c-.7.79-1.41,1.52-2.12,2.18a11.29,11.29,0,0,1-2.17,1.63,4.17,4.17,0,0,1-2,.63c-1.12-.12-1.68-.9-1.68-2.35a8.7,8.7,0,0,1,.32-2.18A11.06,11.06,0,0,1,67,18.94a19.44,19.44,0,0,0-2.22.45,12.6,12.6,0,0,1-2.57.42c-.12.61-.22,1.21-.32,1.82a17.05,17.05,0,0,1-.35,1.73,4.9,4.9,0,0,1-.42,1.18,1.24,1.24,0,0,1-1.08.48l-.42,0-.49-.07-.32,0a5.56,5.56,0,0,1-.17-1.51,20.78,20.78,0,0,1,.63-4.65,17.81,17.81,0,0,1,.77-2.47,16.8,16.8,0,0,1,1.21-2.56A5.5,5.5,0,0,1,62.72,12a2.51,2.51,0,0,1,1.54-.49,3.31,3.31,0,0,1,1.61.42.44.44,0,0,1,.28.42c0,.4-.35.93-1.05,1.61a3.17,3.17,0,0,1-.37.91l-.86,1.47C63.48,17,63.23,17.43,63.14,17.64Z"/><path class="cls-1" d="M85.64,12.21a4.45,4.45,0,0,1,.53,0c.46,0,.85.3,1.15.91a2.94,2.94,0,0,1,.35,1.26q0,.76-1.5,2.1-2.62,2.31-2.63,4a.84.84,0,0,0,.95.95q1.13,0,4.62-2.28c0,.54,0,1,0,1.5-2.49,1.92-4.11,3.1-4.84,3.56a4,4,0,0,1-2,.68,2.06,2.06,0,0,1-1.61-.77,2.66,2.66,0,0,1-.67-1.78,5.51,5.51,0,0,1,.91-2.95,28.34,28.34,0,0,1,2.38-3.08l-3.92.84a30.41,30.41,0,0,1-3.85,3.5v-.45c0-.09,0-.44.07-1.05a13.21,13.21,0,0,0,2-1.86.86.86,0,0,1-.87-.94,5,5,0,0,1,1.89-3.46Z"/><path class="cls-1" d="M89.07,20.61v-.45c0-.09,0-.44.07-1.05q.47-1.55,3.12-3.46A25,25,0,0,1,97.4,12.9a13.44,13.44,0,0,1,4.69-1.21,2.12,2.12,0,0,1,1.82.91,1.47,1.47,0,0,1,.35.73c0,.24-.4.53-1.22.88a1.41,1.41,0,0,1,1,1.29,2.27,2.27,0,0,1-.7,1.4c-1.61,1.9-2.42,3.19-2.42,3.89s.4,1,1.19,1a5.34,5.34,0,0,0,2.45-1.09c.7-.54,1.42-1.07,2.14-1.61-.05.61-.07,1-.07,1.05a2.64,2.64,0,0,0,0,.45c-.21.14-.7.53-1.47,1.16q-2.9,2.31-4,3a3.8,3.8,0,0,1-1.93.7A1.39,1.39,0,0,1,98.16,25a1.74,1.74,0,0,1-.48-1.19A11,11,0,0,1,99,19.71c-3.12,2.47-5,3.91-5.56,4.32a2.7,2.7,0,0,1-1.4.61c-.77,0-1.55-.71-2.35-2.14A5.85,5.85,0,0,1,89.07,20.61Zm11.87-5.53c-.84.24-2,.61-3.64,1.13a13.73,13.73,0,0,0-4.87,2.9,2.81,2.81,0,0,0-.7,2c0,.59.18.88.53.88.51,0,1.69-.7,3.53-2.1A33.32,33.32,0,0,0,100.94,15.08Z"/><path class="cls-1" d="M123.41,20.16v.45a37.67,37.67,0,0,1-5.29,3.29,8.24,8.24,0,0,1-3.5.81,5.89,5.89,0,0,1-2.55-.66,13.12,13.12,0,0,1-1.54.17,13.69,13.69,0,0,1-1.47-.17c-.37.69-1,1.9-1.86,3.6a31.25,31.25,0,0,1-1.89,3.41,1.43,1.43,0,0,1-1.12.72c-.65,0-1-.51-1-1.54a7.47,7.47,0,0,1,1.3-3.92c.35-.56,1.13-1.63,2.34-3.22a45.24,45.24,0,0,0,3.78-5.6q-1.18,1-4,3.11a2.48,2.48,0,0,1,0-.45c0-.09,0-.44.07-1.05a22,22,0,0,0,3.12-2.59c.58-.65,1.59-2,3-4a36.75,36.75,0,0,1,3-3.91,2.45,2.45,0,0,1,1.72-.86,2.2,2.2,0,0,1,1.05.25c.3.16.45.35.45.56,0,.4-.78,1.4-2.34,3a18.5,18.5,0,0,0-3,4.13q4.88-3.33,6.79-3.33a1.45,1.45,0,0,1,1.07.48,1.48,1.48,0,0,1,.47,1.1,6.45,6.45,0,0,1-1.26,3.15,24.43,24.43,0,0,1-3.6,3.89,8.53,8.53,0,0,0-.91.84c.28,0,.59,0,.94,0q2.25,0,6.34-2.73C123.43,19.72,123.41,20.07,123.41,20.16Zm-11.94.53h.35a8.66,8.66,0,0,1,2.52.38q3.41-3.5,3.4-4.55c0-.35-.14-.52-.42-.52a4.32,4.32,0,0,0-1.42.61,12.32,12.32,0,0,0-1.77,1.17A25.49,25.49,0,0,0,111.47,20.69Z"/><path class="cls-1" d="M131.88,19.74A23.29,23.29,0,0,1,128.43,23a6.35,6.35,0,0,1-3.66,1.64c-.7-.13-1.22-.71-1.57-1.71a8.71,8.71,0,0,1-.53-2.87,5.65,5.65,0,0,1,.41-2.1,6.27,6.27,0,0,1,1.13-1.86,13.49,13.49,0,0,1,1.86-1.75,26.33,26.33,0,0,1,2.41-1.69A25.47,25.47,0,0,1,131,11.27a4.3,4.3,0,0,1,1.75-.39,3.5,3.5,0,0,1,1.33.25c.47.21.7.48.7.81,0,.58-.58,1.22-1.75,1.92-.35.23-1.07.62-2.17,1.17s-2.05,1.09-2.87,1.61a9.19,9.19,0,0,0-2.08,1.82,3.57,3.57,0,0,0-.86,2.33.64.64,0,0,0,.28.52.94.94,0,0,0,.6.21,4.17,4.17,0,0,0,1.91-.83,22.89,22.89,0,0,0,2.08-1.83c.3-.3.9-1,1.78-2.08s1.5-1.81,1.82-2.17a8.68,8.68,0,0,1,1.09-1,1.18,1.18,0,0,1,.73-.31.58.58,0,0,1,.56.31,2.45,2.45,0,0,1,.42,1.37,3.74,3.74,0,0,1-.24,1.31c-.16.43-.42,1-.77,1.73l-2.14,4.38q1.68-1.26,2.52-1.92c.56-.45,1.09-.88,1.58-1.3s1-.91,1.64-1.47v1.58c-.63.6-1.26,1.2-1.9,1.78s-1.69,1.52-3.14,2.8c-1.12.89-1.83,1.48-2.13,1.78a7.86,7.86,0,0,0-1.17,1.65c-.41.72-.84,1.4-1.28,2-.28.4-.8,1.05-1.56,2a20.69,20.69,0,0,1-2.34,2.41,3.49,3.49,0,0,1-2,1.06.91.91,0,0,1-.56-.18,1.09,1.09,0,0,1-.35-.84A6.16,6.16,0,0,1,124,30.45a31.23,31.23,0,0,1,2.68-3.18c.37-.36.79-.72,1.26-1.11a15.42,15.42,0,0,0,1.21-1.08A4.87,4.87,0,0,0,130,23.9,28.84,28.84,0,0,0,131.88,19.74Z"/></g></g></svg>